<?xml version="1.0" encoding="UTF-8" standalone="no"?>
<!DOCTYPE svg PUBLIC "-//W3C//DTD SVG 1.1//EN" "http://www.w3.org/Graphics/SVG/1.1/DTD/svg11.dtd">
<svg width="100%" height="100%" viewBox="0 0 24 24" version="1.1" xmlns="http://www.w3.org/2000/svg" xmlns:xlink="http://www.w3.org/1999/xlink" xml:space="preserve" xmlns:serif="http://www.serif.com/" style="fill-rule:evenodd;clip-rule:evenodd;stroke-linejoin:round;stroke-miterlimit:2;">
    <g id="Discord-Symbol-White" transform="matrix(0.189508,0,0,0.189508,0,2.903635)">
        <path d="M81.15,0C79.912,2.197 78.801,4.47 77.791,6.794C68.193,5.354 58.419,5.354 48.796,6.794C47.811,4.47 46.675,2.197 45.437,0C36.421,1.541 27.631,4.243 19.297,8.057C2.779,32.53 -1.691,56.373 0.531,79.886C10.204,87.034 21.039,92.489 32.582,95.975C35.183,92.489 37.481,88.777 39.451,84.912C35.713,83.523 32.102,81.781 28.642,79.76C29.551,79.103 30.435,78.422 31.294,77.765C51.575,87.312 75.063,87.312 95.369,77.765C96.228,78.472 97.112,79.154 98.021,79.76C94.561,81.806 90.95,83.523 87.186,84.938C89.156,88.802 91.455,92.515 94.056,96C105.598,92.515 116.433,87.084 126.107,79.937C128.733,52.66 121.611,29.02 107.29,8.082C98.981,4.268 90.192,1.566 81.175,0.051L81.15,0ZM42.28,65.414C36.042,65.414 30.864,59.757 30.864,52.761C30.864,45.765 35.84,40.082 42.255,40.082C48.67,40.082 53.772,45.79 53.671,52.761C53.57,59.732 48.645,65.414 42.28,65.414ZM84.358,65.414C78.094,65.414 72.967,59.757 72.967,52.761C72.967,45.765 77.942,40.082 84.358,40.082C90.773,40.082 95.849,45.79 95.748,52.761C95.647,59.732 90.722,65.414 84.358,65.414Z" style="fill:white;fill-rule:nonzero;"/>
    </g>
</svg>
