<?xml version="1.0" encoding="UTF-8" standalone="no"?>
<!DOCTYPE svg PUBLIC "-//W3C//DTD SVG 1.1//EN" "http://www.w3.org/Graphics/SVG/1.1/DTD/svg11.dtd">
<svg width="100%" height="100%" viewBox="0 0 70 70" version="1.1" xmlns="http://www.w3.org/2000/svg" xmlns:xlink="http://www.w3.org/1999/xlink" xml:space="preserve" xmlns:serif="http://www.serif.com/" style="fill-rule:evenodd;clip-rule:evenodd;stroke-linejoin:round;stroke-miterlimit:2;">
    <g id="g262179" transform="matrix(0.44728,0,0,0.44728,-12.6564,-31.7899)">
        <g id="Layer-1" serif:id="Layer 1">
            <g id="g2621791" serif:id="g262179">
                <path id="path262155" d="M68.409,85.388C68.409,85.388 54.278,97.417 43.876,112.74C34.265,126.899 29.414,147.844 29.414,147.844C29.414,147.844 24.896,127.152 34.03,109.078C44.915,87.54 60.634,81.533 60.634,81.533C60.634,81.533 51.908,91.752 49.958,93.924C46.528,97.744 42.315,104.239 42.315,104.239C42.315,104.239 49.163,97.791 53.668,93.918C59.838,88.613 68.409,85.388 68.409,85.388Z" style="fill:rgb(47,153,196);fill-rule:nonzero;"/>
                <path id="path262156" d="M88.777,77.863C88.777,77.863 110.348,65.242 135.594,76.908C158.671,87.572 167.104,108.024 167.104,108.024C167.104,108.024 166.152,101.387 161.484,93.213C157.874,86.892 150.94,80.243 150.94,80.243C150.94,80.243 162.388,84.369 170.549,99.595C175.986,109.737 180.279,128.047 178.353,142.032C176.427,156.014 172.843,163.457 172.843,163.457C172.843,163.457 177.107,158.998 180.612,148.285C182.473,142.597 182.676,133.137 182.676,133.137C182.676,133.137 187.228,147.33 182.997,163.904C178.976,179.654 171.514,190.676 164.54,197.962C158.327,204.452 150.94,208.22 150.94,208.22C150.94,208.22 157.373,201.341 159.914,197.824C163.992,192.178 164.357,189.901 164.357,189.901C164.357,189.901 155.477,200.244 141.651,207.446C130.493,213.259 117.599,218.429 105.271,216.476C88.107,213.758 82.307,207.962 82.307,207.962C82.307,207.962 101.872,214.573 119.934,210.703C137.995,206.832 146.834,199.791 153.955,193.56C163.328,185.358 167.969,170.033 167.969,170.033C167.969,170.033 157.456,190.061 130.012,201.316C109.694,209.649 97.272,205.64 97.272,205.64L152.23,177L155.326,176.226C155.326,176.226 170.288,161.057 172.327,142.614C174.103,126.552 166.777,112.697 166.777,112.697C166.777,112.697 168.784,121.856 168.227,131.073C167.461,143.748 166.937,139.071 166.937,139.071C166.937,139.071 164.215,109.85 153.12,97.207C142.025,84.565 127.087,78.522 115.695,77.328C103.891,76.091 88.777,77.863 88.777,77.863Z" style="fill:rgb(48,153,195);fill-opacity:0.99;fill-rule:nonzero;"/>
                <path id="path262157" d="M150.83,165.827L149.139,161.564C149.139,161.564 161.812,150.894 159.422,132.325C157.295,115.796 148.95,107.066 141.651,100.627C136.543,96.12 126.054,93.869 126.054,93.869L121.784,84.63C121.784,84.63 141.444,88.551 154.81,103.465C164.579,114.365 167.779,127.212 167.232,138.163C166.418,154.436 150.83,165.827 150.83,165.827Z" style="fill:rgb(75,173,206);fill-opacity:0.99;fill-rule:nonzero;"/>
                <path id="path262158" d="M75.479,187.075L60.864,152.334C60.864,152.334 52.808,167.604 57.538,181.902C63.089,198.681 77.342,203.966 77.342,203.966C77.342,203.966 75.243,201.559 75.215,198.966C75.181,195.8 75.662,194.419 75.662,194.419C75.662,194.419 68.473,190.431 65.445,185.486C60.455,177.337 62.383,171.33 62.383,171.33C62.383,171.33 63.28,175.714 66.052,179.58C69.831,184.85 75.479,187.075 75.479,187.075Z" style="fill:rgb(75,173,207);fill-rule:nonzero;"/>
                <path id="path262159" d="M54.671,136.205L58.025,146.462C58.025,146.462 49.889,155.987 50.585,172.356C51.208,187.047 58.193,205.727 77.921,214.928C91.598,221.307 106.388,222.108 117.467,220.063C129.484,217.846 140.912,213.094 140.912,213.094C140.912,213.094 110.504,238.074 67.67,220.312C27.557,203.679 30.676,167.648 30.676,167.648C30.676,167.648 36.238,184.261 40.509,189.643C48.573,199.805 55.99,205.124 55.99,205.124C55.99,205.124 35.056,182.519 35.314,159.997C35.556,138.839 45.285,124.984 45.285,124.984L49.511,133.464C49.511,133.464 44.883,141.624 43.215,149.857C40.691,162.308 44.288,171.198 44.288,171.198C44.288,171.198 44.316,158.705 47.063,149.983C49.245,143.053 54.671,136.205 54.671,136.205Z" style="fill:rgb(165,93,154);fill-opacity:0.99;fill-rule:nonzero;"/>
                <path id="path262160" d="M126.428,103.207L129.525,113.528C129.525,113.528 135.743,116.352 140.103,120.724C147.542,128.181 148.618,138.039 148.618,138.039C148.618,138.039 145.154,131.054 141.456,127.489C136.07,122.295 132.363,122.042 132.363,122.042L147.133,158.486C147.133,158.486 155.254,150.721 154.455,137.168C153.599,122.648 145.119,111.589 136.982,106.939C130.063,102.984 126.428,103.207 126.428,103.207Z" style="fill:rgb(165,92,154);fill-rule:nonzero;"/>
                <path id="path262161" d="M116.665,83.248L124.657,101.051L121.274,103.855L148.102,171.065L153.171,172.258L156.078,177.752C156.078,177.752 141.866,185.302 132.282,190.053C122.697,194.804 98.5,206.093 98.5,206.093L81.408,202.355L79.183,197.355L82.566,194.803L57.963,132.718L52.607,131.979L47.963,120.11L50.864,115.265L49.545,113.855L60.118,99.337L74.532,88.116L72.698,82.864C72.698,82.864 71.798,80.857 72.83,79.309C73.862,77.761 79.762,74.573 81.31,75.347C82.858,76.121 84.114,78.695 84.114,78.695L86.178,83.34L108.757,79.957L111.854,84.435L116.665,83.248Z" style="fill:rgb(0,46,87);fill-opacity:0.99;fill-rule:nonzero;"/>
                <path id="path262162" d="M97.593,199.161L96.665,197.194L147.013,173.91L147.907,175.675L97.593,199.161Z" style="fill:rgb(30,139,190);fill-rule:nonzero;"/>
                <path id="path262163" d="M97.996,191.392L119.399,181.937L93.89,115.535L71.15,123.952L97.996,191.392Z" style="fill:rgb(30,139,190);fill-rule:nonzero;"/>
                <path id="path262164" d="M122.048,180.716L142.076,171.874L117.473,107.181L98.081,114.113L122.048,180.716Z" style="fill:rgb(30,139,190);fill-rule:nonzero;"/>
                <path id="path262165" d="M63.925,110.472L115.689,92.049L114.629,89.762L62.871,108.178L63.925,110.472Z" style="fill:rgb(30,139,190);fill-rule:nonzero;"/>
                <path id="path262166" d="M65.341,101.63L64.929,99.113L105.919,84.378L106.791,86.464L65.341,101.63Z" style="fill:rgb(30,139,190);fill-rule:nonzero;"/>
                <path id="path262167" d="M77.767,86.895L83.346,84.595C83.346,84.595 81.791,79.469 79.985,79.211C78.179,78.953 76.804,79.732 76.15,81.087C75.668,82.084 77.767,86.895 77.767,86.895Z" style="fill:white;fill-rule:nonzero;"/>
                <path id="path262168" d="M79.922,132.696L85.794,130.27L83.053,123.401L77.342,125.403L79.922,132.696Z" style="fill:white;fill-rule:nonzero;"/>
                <path id="path262169" d="M85.001,122.702L87.464,129.648L93.21,127.627L90.69,120.641L85.001,122.702Z" style="fill:white;fill-rule:nonzero;"/>
                <path id="path262170" d="M88.285,131.669L91.235,139.155L96.81,136.974L93.779,129.522L88.285,131.669Z" style="fill:white;fill-rule:nonzero;"/>
                <path id="path262171" d="M86.201,132.301L89.421,139.919L83.801,142.026L80.833,134.448L86.201,132.301Z" style="fill:white;fill-rule:nonzero;"/>
                <path id="path262172" d="M84.685,145.878L99.146,140.131L105.232,155.971L91,161.729L84.685,145.878Z" style="fill:rgb(0,46,87);fill-opacity:0.99;fill-rule:nonzero;"/>
                <path id="path262173" d="M92.895,165.518L106.627,159.8L114.257,179.715L100.817,185.726L92.895,165.518Z" style="fill:rgb(0,46,87);fill-opacity:0.99;fill-rule:nonzero;"/>
                <path id="path262174" d="M124.418,175.214L136.922,169.743L129.585,150.993L117.144,156.171L124.418,175.214Z" style="fill:rgb(0,46,87);fill-opacity:0.99;fill-rule:nonzero;"/>
                <path id="path262175" d="M128.328,147.141L115.422,152.394L109.756,136.405L122.386,131.669L128.328,147.141Z" style="fill:rgb(0,46,87);fill-opacity:0.99;fill-rule:nonzero;"/>
                <path id="path262176" d="M108.901,132.249L113.752,130.469L111.076,123.316L106.466,124.895L108.901,132.249Z" style="fill:white;fill-rule:nonzero;"/>
                <path id="path262177" d="M105.754,123.017L110.387,121.206L107.672,114.176L103.251,115.692L105.754,123.017Z" style="fill:white;fill-rule:nonzero;"/>
                <path id="path262178" d="M109.314,113.861L111.903,120.428L116.765,118.913L114.239,111.966L109.314,113.861Z" style="fill:white;fill-rule:nonzero;"/>
                <path id="path262179" d="M112.976,122.323L117.46,120.744L120.239,128.133L115.629,129.838L112.976,122.323Z" style="fill:white;fill-rule:nonzero;"/>
                <g id="text262179" transform="matrix(0.283481,-0.104652,0.104652,0.283481,20.5715,70.319)">
                    <path d="M89.115,189.906C89.073,191.399 89.713,192.039 91.291,192.039L98.417,192.039L94.406,214.866L103.793,214.866L107.804,192.039L114.929,192.039C116.508,192.039 117.404,191.399 117.873,189.906L119.494,184.786L89.286,184.786L89.115,189.906ZM110.449,214.866L118.641,214.866C120.262,214.866 121.329,214.311 122.012,213.116L124.529,208.679C124.742,208.38 124.913,208.295 125.212,208.295L134.769,208.295C135.068,208.295 135.238,208.38 135.281,208.679L136.262,213.116C136.518,214.311 137.414,214.866 139.036,214.866L147.228,214.866L138.865,186.492C138.524,185.298 137.713,184.786 136.39,184.786L131.868,184.786C130.545,184.786 129.564,185.298 128.796,186.492L110.449,214.866ZM128.924,201.682C128.668,201.682 128.625,201.511 128.753,201.298L130.929,197.5L132.294,194.428L132.55,194.428L132.892,197.5L133.702,201.298C133.745,201.511 133.617,201.682 133.361,201.682L128.924,201.682ZM148.934,214.866L158.321,214.866L162.332,192.039L170.609,192.039C172.316,192.039 172.87,192.594 172.614,194.13L172.23,196.178C171.974,197.714 171.249,198.268 169.542,198.268L163.868,198.268L163.1,202.535C162.758,204.54 162.801,205.351 163.313,206.29L167.238,213.244C167.921,214.524 168.817,214.866 170.438,214.866L180.081,214.866L175.004,206.332C174.278,205.138 173.126,204.54 171.462,204.54L171.505,204.114L171.932,204.114C177.564,203.73 180.892,200.871 181.873,195.196L182.044,194.343C183.196,187.644 180.124,184.786 172.444,184.786L154.225,184.786L148.934,214.866ZM187.121,184.786L181.83,214.866L200.049,214.866C209.564,214.866 214.641,211.026 216.092,202.748L217.116,196.903C218.566,188.626 214.854,184.786 205.34,184.786L187.121,184.786ZM203.42,192.039C207.217,192.039 208.369,193.276 207.772,196.69L206.662,202.962C206.065,206.375 204.486,207.612 200.689,207.612L192.497,207.612L195.228,192.039L203.42,192.039ZM232.049,184.786L222.662,184.786L217.372,214.866L226.758,214.866L232.049,184.786ZM259.74,192.039C261.318,192.039 262.214,191.399 262.684,189.906L264.305,184.786L246.129,184.786C239.772,184.786 235.548,187.73 234.694,192.722L234.481,193.746C233.628,198.61 235.676,201.042 241.82,202.407L251.164,204.498C252.06,204.711 252.358,205.052 252.23,205.778L252.102,206.418C251.974,207.228 251.42,207.612 250.609,207.612L234.524,207.612C232.945,207.612 232.049,208.252 231.58,209.746L229.958,214.866L249.926,214.866C256.284,214.866 260.508,211.964 261.404,206.972L261.745,205.01C262.598,200.103 260.849,198.055 254.748,196.69L244.806,194.471C244.081,194.3 243.825,194.002 243.953,193.404L243.996,193.106C244.124,192.423 244.55,192.039 245.233,192.039L259.74,192.039Z" style="fill:white;fill-rule:nonzero;"/>
                </g>
            </g>
        </g>
    </g>
</svg>
