<?xml version="1.0" encoding="UTF-8" standalone="no"?>
<!-- Created with Inkscape (http://www.inkscape.org/) -->

<svg
   width="70"
   height="256"
   viewBox="0 0 18.520833 67.733333"
   version="1.1"
   id="svg1"
   xml:space="preserve"
   inkscape:version="1.4 (e7c3feb1, 2024-10-09)"
   sodipodi:docname="sidebar-tardis.svg"
   xmlns:inkscape="http://www.inkscape.org/namespaces/inkscape"
   xmlns:sodipodi="http://sodipodi.sourceforge.net/DTD/sodipodi-0.dtd"
   xmlns="http://www.w3.org/2000/svg"
   xmlns:svg="http://www.w3.org/2000/svg"><sodipodi:namedview
     id="namedview1"
     pagecolor="#ffffff"
     bordercolor="#000000"
     borderopacity="0.25"
     inkscape:showpageshadow="2"
     inkscape:pageopacity="0.0"
     inkscape:pagecheckerboard="0"
     inkscape:deskcolor="#d1d1d1"
     inkscape:document-units="px"
     inkscape:zoom="9.9571429"
     inkscape:cx="34.949785"
     inkscape:cy="35"
     inkscape:window-width="1512"
     inkscape:window-height="916"
     inkscape:window-x="0"
     inkscape:window-y="38"
     inkscape:window-maximized="1"
     inkscape:current-layer="layer1" /><defs
     id="defs1"><rect
       x="83.909691"
       y="175.93967"
       width="334.73651"
       height="83.909691"
       id="rect262179" /></defs><g
     inkscape:label="Layer 1"
     inkscape:groupmode="layer"
     id="layer1"><g
       id="g262179"
       transform="matrix(0.11834283,0,0,0.11834283,-3.3486832,-8.1323775)"><path
         style="fill:#2f99c4;fill-opacity:1;stroke-width:0.264583"
         d="m 68.409128,85.388435 c 0,0 -14.131062,12.028829 -24.53307,27.351945 -9.611486,14.15861 -14.462096,35.10348 -14.462096,35.10348 0,0 -4.518388,-20.692 4.615915,-38.76554 10.885153,-21.537864 26.604169,-27.544882 26.604169,-27.544882 0,0 -8.725999,10.218925 -10.676234,12.390999 -3.42953,3.81964 -7.642989,10.314513 -7.642989,10.314513 0,0 6.848565,-6.448232 11.352757,-10.320684 6.17019,-5.304784 14.741548,-8.529831 14.741548,-8.529831 z"
         id="path262155"
         sodipodi:nodetypes="cscscscsc" /><path
         style="fill:#3099c3;fill-opacity:0.992157;stroke:none;stroke-width:0.264583"
         d="m 88.777217,77.863312 c 0,0 21.571143,-12.620901 46.816893,-0.954887 23.07711,10.66389 31.50969,31.115605 31.50969,31.115605 0,0 -0.95163,-6.63736 -5.61959,-14.810683 -3.61051,-6.32179 -10.54414,-12.969993 -10.54414,-12.969993 0,0 11.44782,4.125809 19.60931,19.351291 5.43648,10.141905 9.72961,28.452065 7.80347,42.437035 -1.92579,13.98252 -5.50971,21.42531 -5.50971,21.42531 0,0 4.26408,-4.45913 7.76891,-15.1724 1.86083,-5.68801 2.06414,-15.14771 2.06414,-15.14771 0,0 4.55227,14.19335 0.32097,30.76701 -4.02099,15.74991 -11.48315,26.77252 -18.45748,34.05827 -6.21251,6.48993 -13.59961,10.25773 -13.59961,10.25773 0,0 6.43272,-6.87866 8.97381,-10.39599 4.07856,-5.64545 4.44308,-7.92323 4.44308,-7.92323 0,0 -8.87999,10.34291 -22.70551,17.54517 -11.15879,5.81306 -24.05288,10.98307 -36.38043,9.0306 -17.163693,-2.71844 -22.96353,-8.51457 -22.96353,-8.51457 0,0 19.56486,6.61092 37.62607,2.74066 18.06121,-3.87026 26.90046,-10.91202 34.02124,-17.14271 9.37297,-8.20136 14.01441,-23.52648 14.01441,-23.52648 0,0 -10.51285,20.02755 -37.95693,31.28304 -20.31838,8.33307 -32.73979,4.32334 -32.73979,4.32334 l 54.95766,-28.63991 3.09621,-0.77405 c 0,0 14.96167,-15.16921 17.00074,-33.61138 1.77592,-16.06215 -5.55045,-29.91765 -5.55045,-29.91765 0,0 2.00749,9.15902 1.45057,18.37601 -0.76591,12.67574 -1.29009,7.99854 -1.29009,7.99854 0,0 -2.72241,-29.22101 -13.81715,-41.863851 C 142.02524,84.564584 127.08671,78.521589 115.69536,77.327981 103.8912,76.091117 88.777217,77.863312 88.777217,77.863312 Z"
         id="path262156"
         sodipodi:nodetypes="cscscsscscsscscsscsscscccscscssc" /><path
         style="fill:#4badce;fill-opacity:0.992157;stroke-width:0.264583"
         d="m 150.82989,165.82743 -1.69082,-4.26355 c 0,0 12.6726,-10.67002 10.28303,-29.23871 -2.1271,-16.52915 -10.47197,-25.25905 -17.77065,-31.69846 -5.10799,-4.506626 -15.59786,-6.757233 -15.59786,-6.757233 l -4.26947,-9.239832 c 0,0 19.66002,3.920973 33.02621,18.835255 9.7685,10.8999 12.96907,23.74744 12.42163,34.6979 -0.81354,16.2734 -16.40207,27.66463 -16.40207,27.66463 z"
         id="path262157"
         sodipodi:nodetypes="ccssccssc" /><path
         style="fill:#4badcf;fill-opacity:1;stroke-width:0.264583"
         d="M 75.479291,187.07482 60.863667,152.33385 c 0,0 -8.056062,15.27024 -3.325828,29.56828 5.550924,16.77873 19.804364,22.06356 19.804364,22.06356 0,0 -2.098785,-2.40696 -2.1271,-4.99986 -0.03457,-3.16533 0.4469,-4.54678 0.4469,-4.54678 0,0 -7.189115,-3.98825 -10.216987,-8.93307 -4.989976,-8.14914 -3.061639,-14.15638 -3.061639,-14.15638 0,0 0.896706,4.38399 3.669028,8.25038 3.778903,5.27021 9.426886,7.49484 9.426886,7.49484 z"
         id="path262158"
         sodipodi:nodetypes="ccscscscsc" /><path
         style="fill:#a55d9a;fill-opacity:0.996078;stroke-width:0.264583"
         d="m 54.671255,136.20469 3.354224,10.25773 c 0,0 -8.136092,9.52428 -7.440972,25.89308 0.623869,14.691 7.608211,33.37102 27.336691,42.57284 13.676598,6.37908 28.466782,7.17953 39.546162,5.13496 12.01637,-2.21748 23.4446,-6.96948 23.4446,-6.96948 0,0 -30.40754,24.98025 -73.242316,7.21831 -40.11289,-16.63329 -36.993991,-52.6639 -36.993991,-52.6639 0,0 5.562647,16.61261 9.83305,21.99442 8.063959,10.16266 15.481032,15.48103 15.481032,15.48103 0,0 -20.933962,-22.60428 -20.675943,-45.12708 0.24238,-21.15759 9.971314,-35.01257 9.971314,-35.01257 l 4.225803,8.48001 c 0,0 -4.627462,8.16031 -6.296111,16.39334 -2.523383,12.45025 1.072807,21.34012 1.072807,21.34012 0,0 0.02839,-12.49223 2.775227,-21.2142 2.182569,-6.93027 7.608423,-13.77861 7.608423,-13.77861 z"
         id="path262159"
         sodipodi:nodetypes="ccssscscscsccscsc" /><path
         style="fill:#a55c9a;fill-opacity:1;stroke-width:0.264583"
         d="m 126.42843,103.20688 3.09621,10.32069 c 0,0 6.21818,2.82477 10.5787,7.19609 7.43877,7.45719 8.51457,17.31555 8.51457,17.31555 0,0 -3.46409,-6.98498 -7.16152,-10.55031 -5.38626,-5.19383 -9.09356,-5.44676 -9.09356,-5.44676 l 14.76994,36.44338 c 0,0 8.12104,-7.76484 7.32201,-21.31789 -0.85601,-14.51967 -9.33553,-25.57827 -17.47233,-30.22876 -6.91901,-3.95446 -10.55402,-3.73199 -10.55402,-3.73199 z"
         id="path262160"
         sodipodi:nodetypes="ccscsccssc" /><path
         style="display:inline;fill:#002e57;fill-opacity:0.992157;stroke:none;stroke-width:0.264583"
         d="m 116.66452,83.248204 7.99236,17.803196 -3.38262,2.80361 26.82762,67.2104 5.06899,1.19256 2.90732,5.49366 c 0,0 -14.21207,7.55031 -23.79659,12.3013 -9.58453,4.75098 -33.781986,16.03986 -33.781986,16.03986 l -17.092097,-3.73816 -2.224627,-4.99986 3.382619,-2.55177 -24.602994,-62.08462 -5.355399,-0.73949 -4.64431,-11.86879 2.901151,-4.84554 -1.318481,-1.40984 10.572534,-14.518094 14.414397,-11.220662 -1.834515,-5.2517 c 0,0 -0.899973,-2.00735 0.132096,-3.555453 1.032068,-1.548101 6.931898,-4.735665 8.480001,-3.961613 1.548104,0.774052 2.803623,3.348052 2.803623,3.348052 l 2.064137,4.644311 22.579591,-3.382619 3.09621,4.477647 z"
         id="path262161"
         sodipodi:nodetypes="cccccczccccccccccccssccccc" /><path
         style="fill:#1e8bbe;fill-opacity:1;stroke:none;stroke-width:0.264583"
         d="m 97.593466,199.16089 -0.928369,-1.9666 50.347923,-23.28452 0.8938,1.76539 z"
         id="path262162"
         sodipodi:nodetypes="ccccc" /><path
         style="fill:#1e8bbe;fill-opacity:1;stroke:none;stroke-width:0.264583"
         d="M 97.995922,191.39198 119.39901,181.9367 93.889871,115.53492 71.149788,123.95196 Z"
         id="path262163"
         sodipodi:nodetypes="ccccc" /><path
         style="fill:#1e8bbe;fill-opacity:1;stroke:none;stroke-width:0.264583"
         d="m 122.04831,180.71575 20.02782,-8.84172 -24.60299,-64.69319 -19.392034,6.9319 z"
         id="path262164"
         sodipodi:nodetypes="ccccc" /><path
         style="fill:#1e8bbe;fill-opacity:1;stroke:none;stroke-width:0.264583"
         d="M 63.925306,110.47211 115.68924,92.049183 114.62878,89.761596 62.871017,108.17835 Z"
         id="path262165"
         sodipodi:nodetypes="ccccc" /><path
         style="fill:#1e8bbe;fill-opacity:1;stroke:none;stroke-width:0.264583"
         d="M 65.341317,101.63039 64.928981,99.113177 105.91915,84.3778 l 0.87158,2.08636 z"
         id="path262166"
         sodipodi:nodetypes="ccccc" /><path
         style="fill:#ffffff;stroke:none;stroke-width:0.264583"
         d="m 77.766881,86.895011 5.578851,-2.299934 c 0,0 -1.554275,-5.125775 -3.360397,-5.383794 -1.80612,-0.258017 -3.181713,0.520341 -3.835692,1.875255 -0.481467,0.997503 1.617238,5.808473 1.617238,5.808473 z"
         id="path262167"
         sodipodi:nodetypes="ccssc" /><path
         style="fill:#ffffff;stroke:none;stroke-width:0.264583"
         d="m 79.922374,132.69615 5.871435,-2.42585 -2.74066,-6.86894 -5.710946,2.00117 z"
         id="path262168"
         sodipodi:nodetypes="ccccc" /><path
         style="fill:#ffffff;stroke:none;stroke-width:0.264583"
         d="m 85.000715,122.70163 2.462874,6.94656 5.746705,-2.02081 -2.520421,-6.98655 z"
         id="path262169"
         sodipodi:nodetypes="ccccc" /><path
         style="fill:#ffffff;stroke:none;stroke-width:0.264583"
         d="m 88.284546,131.66901 2.950514,7.48615 5.574819,-2.18149 -3.031228,-7.45178 z"
         id="path262170"
         sodipodi:nodetypes="ccccc" /><path
         style="fill:#ffffff;stroke:none;stroke-width:0.264583"
         d="m 86.200577,132.30052 3.22068,7.61805 -5.620403,2.10714 -2.968078,-7.57807 z"
         id="path262171"
         sodipodi:nodetypes="ccccc" /><path
         style="fill:#002e57;fill-opacity:0.992157;stroke:none;stroke-width:0.264583"
         d="m 84.684962,145.8779 14.461489,-5.74671 6.085369,15.83966 -14.231797,5.75785 z"
         id="path262172"
         sodipodi:nodetypes="ccccc" /><path
         style="fill:#002e57;fill-opacity:0.992157;stroke:none;stroke-width:0.264583"
         d="m 92.89454,165.51774 13.73279,-5.71823 7.62946,19.91597 -13.43995,6.01045 z"
         id="path262173"
         sodipodi:nodetypes="ccccc" /><path
         style="fill:#002e57;fill-opacity:0.992157;stroke:none;stroke-width:0.264583"
         d="m 124.41846,175.21446 12.50382,-5.4712 -7.33724,-18.75016 -12.44066,5.17835 z"
         id="path262174"
         sodipodi:nodetypes="ccccc" /><path
         style="fill:#002e57;fill-opacity:0.992157;stroke:none;stroke-width:0.264583"
         d="m 128.32823,147.14091 -12.90626,5.25327 -5.66622,-15.98887 12.63012,-4.7363 z"
         id="path262175"
         sodipodi:nodetypes="ccccc" /><path
         style="fill:#ffffff;stroke:none;stroke-width:0.264583"
         d="m 108.90075,132.24914 4.85083,-1.77999 -2.67524,-7.15273 -4.60999,1.57876 z"
         id="path262176"
         sodipodi:nodetypes="ccccc" /><path
         style="fill:#ffffff;stroke:none;stroke-width:0.264583"
         d="m 105.75409,123.01738 4.63317,-1.81154 -2.71548,-7.02954 -4.42054,1.51561 z"
         id="path262177"
         sodipodi:nodetypes="ccccc" /><path
         style="fill:#ffffff;stroke:none;stroke-width:0.264583"
         d="m 109.3137,113.86054 2.58917,6.56767 4.8626,-1.51562 -2.52602,-6.94657 z"
         id="path262178" /><path
         style="fill:#ffffff;stroke:none;stroke-width:0.264583"
         d="m 112.97643,122.32272 4.4837,-1.57876 2.77862,7.38862 -4.60999,1.70507 z"
         id="path262179"
         sodipodi:nodetypes="ccccc" /><path
         style="font-style:oblique;font-weight:900;font-size:42.6667px;font-family:Neusharp;-inkscape-font-specification:'Neusharp Heavy Oblique';white-space:pre;fill:#ffffff"
         d="m 89.115493,189.90556 c -0.04267,1.49333 0.597334,2.13333 2.176002,2.13333 h 7.125339 l -4.01067,22.82669 h 9.386676 l 4.01067,-22.82669 h 7.12534 c 1.57866,0 2.47466,-0.64 2.944,-2.13333 l 1.62133,-5.12001 H 89.28616 Z m 21.333347,24.96002 h 8.19201 c 1.62133,0 2.688,-0.55467 3.37067,-1.74934 l 2.51733,-4.43734 c 0.21334,-0.29866 0.384,-0.384 0.68267,-0.384 h 9.55734 c 0.29867,0 0.46933,0.0853 0.512,0.384 l 0.98133,4.43734 c 0.25601,1.19467 1.15201,1.74934 2.77334,1.74934 h 8.19201 l -8.36268,-28.37336 c -0.34133,-1.19467 -1.152,-1.70667 -2.47467,-1.70667 h -4.52267 c -1.32266,0 -2.304,0.512 -3.072,1.70667 z m 18.47468,-13.18401 c -0.256,0 -0.29866,-0.17067 -0.17066,-0.384 l 2.176,-3.79734 1.36533,-3.072 h 0.256 l 0.34134,3.072 0.81066,3.79734 c 0.0427,0.21333 -0.0853,0.384 -0.34133,0.384 z m 20.01073,13.18401 h 9.38667 l 4.01067,-22.82669 h 8.27734 c 1.70667,0 2.26133,0.55467 2.00533,2.09067 l -0.384,2.048 c -0.256,1.536 -0.98133,2.09067 -2.688,2.09067 h -5.67467 l -0.768,4.26667 c -0.34133,2.00533 -0.29867,2.816 0.21333,3.75467 l 3.92534,6.95467 c 0.68267,1.28 1.57867,1.62134 3.2,1.62134 h 9.64268 l -5.07734,-8.53334 c -0.72534,-1.19467 -1.87734,-1.79201 -3.54134,-1.79201 l 0.0427,-0.42666 h 0.42667 c 5.632,-0.384 8.96,-3.24267 9.94134,-8.91734 l 0.17066,-0.85334 c 1.152,-6.69867 -1.92,-9.55734 -9.6,-9.55734 h -18.21868 z m 38.18669,-30.08003 -5.29068,30.08003 h 18.21869 c 9.51467,0 14.59201,-3.84001 16.04267,-12.11735 l 1.024,-5.84533 c 1.45067,-8.27734 -2.26133,-12.11735 -11.776,-12.11735 z m 16.29867,7.25334 c 3.79734,0 4.94934,1.23734 4.35201,4.65067 l -1.10934,6.27201 c -0.59733,3.41333 -2.176,4.65067 -5.97333,4.65067 h -8.19201 l 2.73067,-15.57335 z m 28.62937,-7.25334 h -9.38668 l -5.29067,30.08003 h 9.38668 z m 27.69068,7.25334 c 1.57866,0 2.47466,-0.64 2.944,-2.13333 l 1.62133,-5.12001 h -18.17601 c -6.35734,0 -10.58134,2.94401 -11.43468,7.93601 l -0.21333,1.024 c -0.85333,4.864 1.19467,7.29601 7.33867,8.66134 l 9.34401,2.09067 c 0.896,0.21333 1.19467,0.55466 1.06667,1.28 l -0.128,0.64 c -0.128,0.81067 -0.68267,1.19467 -1.49334,1.19467 h -16.08534 c -1.57867,0 -2.47467,0.64 -2.94401,2.13333 l -1.62133,5.12001 h 19.96801 c 6.35734,0 10.58135,-2.90134 11.47735,-7.89334 l 0.34133,-1.96267 c 0.85333,-4.90667 -0.896,-6.95467 -6.99734,-8.32001 l -9.94134,-2.21867 c -0.72533,-0.17066 -0.98133,-0.46933 -0.85333,-1.06666 l 0.0427,-0.29867 c 0.128,-0.68267 0.55467,-1.06667 1.23734,-1.06667 z"
         id="text262179"
         transform="matrix(0.28348069,-0.104652,0.104652,0.28348069,20.571488,70.319029)"
         aria-label="TARDIS" /></g></g></svg>
