<?xml version="1.0" encoding="UTF-8" standalone="no"?>
<!DOCTYPE svg PUBLIC "-//W3C//DTD SVG 1.1//EN" "http://www.w3.org/Graphics/SVG/1.1/DTD/svg11.dtd">
<svg width="100%" height="100%" viewBox="0 0 550 990" version="1.1" xmlns="http://www.w3.org/2000/svg" xmlns:xlink="http://www.w3.org/1999/xlink" xml:space="preserve" xmlns:serif="http://www.serif.com/" style="fill-rule:evenodd;clip-rule:evenodd;stroke-linejoin:round;stroke-miterlimit:2;">
    <g transform="matrix(1,0,0,1,-874.016,-108.199)">
        <g transform="matrix(0.318728,0,0,0.952247,874.016,48.2079)">
            <path d="M344.999,220.111L0,220.111L0,204.01L344.999,204.01L344.999,220.111ZM344.999,193.345L0,193.345L0,177.244L344.999,177.244L344.999,193.345Z" style="fill:rgb(0,85,255);fill-rule:nonzero;"/>
            <path d="M689.998,220.111L344.999,220.111L344.999,204.01L689.998,204.01L689.998,220.111ZM689.998,193.345L344.999,193.345L344.999,177.244L689.998,177.244L689.998,193.345Z" style="fill:rgb(0,85,255);fill-rule:nonzero;"/>
            <path d="M730.748,82.895L730.748,62.999L994.247,62.999L994.247,82.895L730.748,82.895ZM730.748,120.224L730.748,100.329L994.247,100.329L994.247,120.224L730.748,120.224ZM730.748,157.554L730.748,137.658L994.247,137.658L994.247,157.554L730.748,157.554Z" style="fill-rule:nonzero;"/>
            <path d="M1380,220.111L1035,220.111L1035,204.01L1380,204.01L1380,220.111ZM1380,193.345L1035,193.345L1035,177.244L1380,177.244L1380,193.345Z" style="fill:rgb(0,85,255);fill-rule:nonzero;"/>
            <path d="M1725,220.111L1380,220.111L1380,204.01L1725,204.01L1725,220.111ZM1725,193.345L1380,193.345L1380,177.244L1725,177.244L1725,193.345Z" style="fill:rgb(0,85,255);fill-rule:nonzero;"/>
            <rect x="138.183" y="244.006" width="68.939" height="210.029" style="fill:rgb(0,85,255);fill-rule:nonzero;"/>
            <path d="M553.959,364.301L640.975,364.301L640.975,383.376L553.959,383.376L553.959,411.989L479.812,411.989L479.812,383.376L394.022,383.376L394.022,364.301L479.812,364.301L479.812,313.435L394.022,313.435L394.022,294.36L479.812,294.36L479.812,267.081L553.959,267.081L553.959,294.36L640.975,294.36L640.975,313.435L553.959,313.435L553.959,364.301Z" style="fill-rule:nonzero;"/>
            <rect x="828.181" y="244.006" width="68.939" height="210.029" style="fill:rgb(0,85,255);fill-rule:nonzero;"/>
            <path d="M1243.96,364.301L1330.97,364.301L1330.97,383.376L1243.96,383.376L1243.96,411.989L1169.81,411.989L1169.81,383.376L1084.02,383.376L1084.02,364.301L1169.81,364.301L1169.81,313.435L1084.02,313.435L1084.02,294.36L1169.81,294.36L1169.81,267.081L1243.96,267.081L1243.96,294.36L1330.97,294.36L1330.97,313.435L1243.96,313.435L1243.96,364.301Z" style="fill-rule:nonzero;"/>
            <rect x="1518.18" y="244.006" width="68.939" height="210.029" style="fill:rgb(0,85,255);fill-rule:nonzero;"/>
            <rect x="138.183" y="489.929" width="68.939" height="210.029" style="fill:rgb(0,85,255);fill-rule:nonzero;"/>
            <path d="M565.296,631.453C558.147,632.41 550.334,633.145 541.857,633.658C533.38,634.171 524.443,634.427 515.047,634.427C506.264,634.427 497.889,634.222 489.923,633.812C481.957,633.402 474.399,632.821 467.25,632.069L419.759,655.348L357.561,643.862L415.776,618.634C402.09,611.729 395.248,602.362 395.248,590.534C395.248,579.664 402.295,570.468 416.389,562.948L357.561,536.694L420.985,525.003L470.008,548.693C477.565,547.735 485.429,547 493.6,546.488C501.77,545.975 510.554,545.719 519.95,545.719C528.937,545.719 537.363,545.941 545.227,546.385C553.091,546.83 560.598,547.462 567.747,548.282L615.544,525.003L677.436,536.489L619.834,561.922C626.37,565.409 631.375,569.408 634.847,573.921C638.32,578.433 640.056,583.595 640.056,589.406C640.056,600.345 632.702,609.678 617.996,617.403L677.436,643.657L614.319,655.348L565.296,631.453ZM571.424,589.817C571.424,573.75 553.653,565.716 518.111,565.716C508.307,565.716 499.983,566.349 493.14,567.614C486.297,568.879 480.68,570.622 476.289,572.844C471.897,575.066 468.68,577.647 466.637,580.587C464.595,583.527 463.573,586.672 463.573,590.022C463.573,598.158 468.425,604.259 478.127,608.327C487.829,612.395 501.158,614.429 518.111,614.429C527.303,614.429 535.269,613.814 542.01,612.583C548.751,611.353 554.317,609.644 558.708,607.456C563.1,605.268 566.317,602.67 568.36,599.662C570.402,596.653 571.424,593.372 571.424,589.817Z" style="fill:rgb(225,225,225);fill-rule:nonzero;"/>
            <rect x="828.181" y="489.929" width="68.939" height="210.029" style="fill:rgb(0,85,255);fill-rule:nonzero;"/>
            <path d="M1207.5,563.768C1222.82,563.768 1237.27,564.742 1250.85,566.691C1264.43,568.639 1276.23,571.289 1286.24,574.639C1296.25,577.989 1304.16,581.937 1309.99,586.484C1315.81,591.03 1318.72,595.867 1318.72,600.995C1318.72,606.123 1315.81,610.943 1309.99,615.455C1304.16,619.967 1296.25,623.898 1286.24,627.249C1276.23,630.599 1264.43,633.248 1250.85,635.196C1237.27,637.145 1222.82,638.119 1207.5,638.119C1192.18,638.119 1177.78,637.145 1164.3,635.196C1150.81,633.248 1139.07,630.599 1129.06,627.249C1119.05,623.898 1111.14,619.967 1105.31,615.455C1099.49,610.943 1096.58,606.123 1096.58,600.995C1096.58,595.867 1099.49,591.03 1105.31,586.484C1111.14,581.937 1119.05,577.989 1129.06,574.639C1139.07,571.289 1150.81,568.639 1164.3,566.691C1177.78,564.742 1192.18,563.768 1207.5,563.768Z" style="fill-rule:nonzero;"/>
            <rect x="1518.18" y="489.929" width="68.939" height="210.029" style="fill:rgb(0,85,255);fill-rule:nonzero;"/>
            <rect x="138.183" y="735.853" width="68.939" height="210.029" style="fill:rgb(0,85,255);fill-rule:nonzero;"/>
            <rect x="828.181" y="735.853" width="68.939" height="210.029" style="fill:rgb(0,85,255);fill-rule:nonzero;"/>
            <rect x="1518.18" y="735.853" width="68.939" height="210.029" style="fill:rgb(0,85,255);fill-rule:nonzero;"/>
            <path d="M0,1056.43L344.999,1056.43L344.999,1071.82L0,1071.82L0,1056.43ZM0,1087.2L344.999,1087.2L344.999,1102.58L0,1102.58L0,1087.2Z" style="fill:rgb(0,85,255);fill-rule:nonzero;"/>
            <path d="M344.999,1056.43L689.998,1056.43L689.998,1071.82L344.999,1071.82L344.999,1056.43ZM344.999,1087.2L689.998,1087.2L689.998,1102.58L344.999,1102.58L344.999,1087.2Z" style="fill:rgb(0,85,255);fill-rule:nonzero;"/>
            <path d="M689.998,1056.43L1035,1056.43L1035,1071.82L689.998,1071.82L689.998,1056.43ZM689.998,1087.2L1035,1087.2L1035,1102.58L689.998,1102.58L689.998,1087.2Z" style="fill:rgb(0,85,255);fill-rule:nonzero;"/>
            <path d="M1035,1056.43L1380,1056.43L1380,1071.82L1035,1071.82L1035,1056.43ZM1035,1087.2L1380,1087.2L1380,1102.58L1035,1102.58L1035,1087.2Z" style="fill:rgb(0,85,255);fill-rule:nonzero;"/>
            <path d="M1380,1056.43L1725,1056.43L1725,1071.82L1380,1071.82L1380,1056.43ZM1380,1087.2L1725,1087.2L1725,1102.58L1380,1102.58L1380,1087.2Z" style="fill:rgb(0,85,255);fill-rule:nonzero;"/>
        </g>
    </g>
</svg>
